<?xml version="1.0" encoding="UTF-8"?>
<svg width="752pt" height="752pt" version="1.1" viewBox="0 0 752 752" xmlns="http://www.w3.org/2000/svg">
 <defs>
  <clipPath id="a">
   <path d="m189 139.21h374v473.58h-374z"/>
  </clipPath>
 </defs>
 <path d="m37.602 0h676.8c20.766 0 37.602 20.766 37.602 37.602v676.8c0 20.766-16.836 37.602-37.602 37.602h-676.8c-20.766 0-37.602-20.766-37.602-37.602v-676.8c0-20.766 16.836-37.602 37.602-37.602z" fill="#ffd65b"/>
 <path d="m305.95 400.67h140.1c6.9062 0 11.84-4.9336 11.84-11.84s-4.9336-11.84-11.84-11.84h-140.1c-6.9062 0-11.84 4.9336-11.84 11.84 0.003906 5.918 4.9336 11.84 11.84 11.84z" fill="#2d62a9"/>
 <g clip-path="url(#a)">
  <path d="m542.74 387.84h-12.824c-5.918-45.387-30.586-83.863-67.09-108.53l29.598-81.891c8.8789-2.9609 16.773-8.8789 19.734-18.746 5.918-15.785-1.9727-32.559-17.758-38.477-15.793-5.9219-31.578 2.957-37.496 18.746-2.9609 8.8789-1.9727 18.746 2.9609 26.641l-28.613 77.945c-17.758-6.9062-36.504-10.852-55.25-10.852-19.734 0-38.477 3.9453-55.25 10.852l-28.613-77.945c4.9297-7.8984 6.9023-17.762 2.957-26.641-5.918-15.785-22.691-23.68-38.477-17.758-15.785 5.918-23.68 22.691-17.758 38.477 2.9609 8.8789 10.852 15.785 19.734 18.746l29.598 81.891c-35.52 24.664-61.172 63.145-67.09 108.53h-11.844c-10.852 0-19.734 8.8789-19.734 19.734v61.172c0 10.852 8.8789 19.734 19.734 19.734h11.84v91.758c0 17.758 14.801 32.559 32.559 32.559h244.68c17.758 0 32.559-14.801 32.559-32.559v-91.758h11.84c10.852 0 19.734-8.8789 19.734-19.734v-61.172c-0.003906-11.844-8.8828-20.723-19.734-20.723zm-236.79-33.543h140.1c18.746 0 33.547 14.801 33.547 33.547s-14.801 33.547-33.547 33.547l-140.1-0.003906c-18.746 0-33.547-14.801-33.547-33.547 0.003906-18.746 14.801-33.543 33.547-33.543zm175.62 196.34c0 5.918-4.9336 10.852-10.852 10.852l-189.43 0.003906c-5.918 0-10.852-4.9336-10.852-10.852v-35.52c0-5.918 4.9336-10.852 10.852-10.852 5.918 0 10.852 4.9336 10.852 10.852v24.664h167.73v-24.664c0-5.918 4.9336-10.852 10.852-10.852 5.918 0 10.852 4.9336 10.852 10.852z" fill="#2d62a9"/>
 </g>
</svg>
