<svg xmlns="http://www.w3.org/2000/svg" viewBox="0 0 512 512"><g id="Rent_and_Buy__Movie_Online" data-name="Rent_and_Buy_Movie_Online"><path d="M482.11,84.7874H174.9648a8,8,0,0,0-8,8V210.4646H29.89a8,8,0,0,0-8,8v200.748a8,8,0,0,0,8,8h278.15a8,8,0,0,0,8-8V255.804H482.11a8,8,0,0,0,8-8V92.7874A8,8,0,0,0,482.11,84.7874ZM300.0391,411.2126H37.89V226.4646h262.15Zm-19.6477-240.917c0-16.6161,21.5557-30.0861,48.146-30.0861s48.1459,13.47,48.1459,30.0861-21.5556,30.0861-48.1459,30.0861S280.3914,186.9117,280.3914,170.2956ZM474.11,239.804H316.0391V226.0706H423.9534a6.9089,6.9089,0,0,0,6.9023-7.2056c-.0124-.3056-.024-.6121-.024-.921a21.7468,21.7468,0,0,1,21.6644-21.7116,6.9093,6.9093,0,0,0,6.8937-6.9091V149.8815a6.9094,6.9094,0,0,0-6.8937-6.9092,21.77,21.77,0,0,1-21.6607-21.5829,6.9093,6.9093,0,0,0-6.909-6.8686H234.1975a6.9093,6.9093,0,0,0-6.9091,6.8691A21.76,21.76,0,0,1,205.58,142.9738c-.1918,0-.3822-.0082-.5726-.015l-.1787-.0062a6.9094,6.9094,0,0,0-7.143,6.9052v39.4891a6.91,6.91,0,0,0,7.143,6.9053l.1787-.0063c.19-.0067.3808-.0149.5726-.0149a21.75,21.75,0,0,1,20.3848,14.2336h-43V100.7874H474.11Z" id="id_101" style="fill: rgb(255, 255, 255);"></path><path d="M145.3867,361.6423a8,8,0,0,0,8.02-.0337l61.3179-35.8642a8,8,0,0,0,0-13.8115l-61.3179-35.8643a8,8,0,0,0-12.039,6.9058v71.7285A8,8,0,0,0,145.3867,361.6423Z" id="id_102" style="fill: rgb(255, 255, 255);"></path><rect x="59.1973" y="357.7073" width="16" height="30.3779" id="id_103" style="fill: rgb(255, 255, 255);"></rect><rect x="59.1973" y="303.7024" width="16" height="30.3779" id="id_104" style="fill: rgb(255, 255, 255);"></rect><rect x="59.1973" y="249.6975" width="16" height="30.3779" id="id_105" style="fill: rgb(255, 255, 255);"></rect><rect x="262.7324" y="303.7024" width="16" height="30.3779" id="id_106" style="fill: rgb(255, 255, 255);"></rect><rect x="262.7324" y="249.6975" width="16" height="30.3779" id="id_107" style="fill: rgb(255, 255, 255);"></rect><rect x="262.7324" y="357.7073" width="16" height="30.3779" id="id_108" style="fill: rgb(255, 255, 255);"></rect></g></svg>